<?xml version="1.0" standalone="no"?>
<!DOCTYPE svg PUBLIC "-//W3C//DTD SVG 20010904//EN"
 "http://www.w3.org/TR/2001/REC-SVG-20010904/DTD/svg10.dtd">
<svg version="1.0" xmlns="http://www.w3.org/2000/svg"
 width="400.000000pt" height="400.000000pt" viewBox="0 0 400.000000 400.000000"
 preserveAspectRatio="xMidYMid meet">
<metadata>
Created by potrace 1.11, written by Peter Selinger 2001-2013
</metadata>
<g transform="translate(0.000000,400.000000) scale(0.100000,-0.100000)"
fill="#000000" stroke="none">
<path d="M839 3582 c-8 -2 -52 -53 -99 -114 -47 -61 -210 -271 -362 -467
l-276 -355 48 -56 c26 -30 161 -188 300 -350 138 -162 262 -306 274 -320 20
-24 254 -297 300 -350 76 -89 396 -462 425 -496 20 -22 45 -51 56 -65 24 -29
443 -518 461 -538 15 -16 13 -18 89 74 28 33 53 62 56 65 3 3 38 43 78 90 40
47 92 108 116 135 23 28 102 120 175 205 73 85 152 178 176 205 23 28 52 61
64 75 12 14 41 48 64 75 24 28 76 88 116 135 40 47 84 98 98 115 14 16 122
142 240 280 118 137 225 263 238 278 14 15 105 121 203 235 l178 208 -86 110
c-47 61 -98 126 -113 145 -14 19 -56 72 -93 119 -36 47 -74 95 -83 107 -9 12
-93 120 -186 240 l-169 218 -1137 0 c-625 0 -1143 -1 -1151 -3z"/>
</g>
</svg>
